<svg xmlns="http://www.w3.org/2000/svg" width="1040" height="600" viewBox="0 0 1040 600">
<rect width="100%" height="100%" fill="white"/>
<text x="40.0" y="38.0" font-family="Inter, Arial, sans-serif" font-size="20" font-weight="700" text-anchor="start" fill="#222222">Упоминания банков и рельс: не использование и не market share</text>
<rect x="245" y="57" width="14" height="14" fill="#EF3124"/>
<text x="265.0" y="69.0" font-family="Inter, Arial, sans-serif" font-size="12" font-weight="400" text-anchor="start" fill="#222222">Доля текстовых сообщений</text>
<rect x="490" y="57" width="14" height="14" fill="#3B82F6"/>
<text x="510.0" y="69.0" font-family="Inter, Arial, sans-serif" font-size="12" font-weight="400" text-anchor="start" fill="#222222">Доля авторов</text>
<text x="231.0" y="113.0" font-family="Inter, Arial, sans-serif" font-size="12" font-weight="400" text-anchor="end" fill="#222222">Kaspi</text>
<rect x="245" y="98" width="700" height="1" fill="#F1F2F4"/>
<rect x="245" y="103" width="134.5" height="13" rx="2" fill="#EF3124"/>
<rect x="245" y="121" width="625.0" height="13" rx="2" fill="#3B82F6"/>
<text x="385.5" y="114.0" font-family="Inter, Arial, sans-serif" font-size="11" font-weight="400" text-anchor="start" fill="#222222">5.7%</text>
<text x="876.0" y="132.0" font-family="Inter, Arial, sans-serif" font-size="11" font-weight="400" text-anchor="start" fill="#222222">26.6%</text>
<text x="231.0" y="161.0" font-family="Inter, Arial, sans-serif" font-size="12" font-weight="400" text-anchor="end" fill="#222222">Freedom</text>
<rect x="245" y="146" width="700" height="1" fill="#F1F2F4"/>
<rect x="245" y="151" width="104.7" height="13" rx="2" fill="#EF3124"/>
<rect x="245" y="169" width="448.4" height="13" rx="2" fill="#3B82F6"/>
<text x="355.7" y="162.0" font-family="Inter, Arial, sans-serif" font-size="11" font-weight="400" text-anchor="start" fill="#222222">4.5%</text>
<text x="699.4" y="180.0" font-family="Inter, Arial, sans-serif" font-size="11" font-weight="400" text-anchor="start" fill="#222222">19.1%</text>
<text x="231.0" y="209.0" font-family="Inter, Arial, sans-serif" font-size="12" font-weight="400" text-anchor="end" fill="#222222">BCC</text>
<rect x="245" y="194" width="700" height="1" fill="#F1F2F4"/>
<rect x="245" y="199" width="76.2" height="13" rx="2" fill="#EF3124"/>
<rect x="245" y="217" width="230.8" height="13" rx="2" fill="#3B82F6"/>
<text x="327.2" y="210.0" font-family="Inter, Arial, sans-serif" font-size="11" font-weight="400" text-anchor="start" fill="#222222">3.2%</text>
<text x="481.8" y="228.0" font-family="Inter, Arial, sans-serif" font-size="11" font-weight="400" text-anchor="start" fill="#222222">9.8%</text>
<text x="231.0" y="257.0" font-family="Inter, Arial, sans-serif" font-size="12" font-weight="400" text-anchor="end" fill="#222222">Sber</text>
<rect x="245" y="242" width="700" height="1" fill="#F1F2F4"/>
<rect x="245" y="247" width="63.1" height="13" rx="2" fill="#EF3124"/>
<rect x="245" y="265" width="356.9" height="13" rx="2" fill="#3B82F6"/>
<text x="314.1" y="258.0" font-family="Inter, Arial, sans-serif" font-size="11" font-weight="400" text-anchor="start" fill="#222222">2.7%</text>
<text x="607.9" y="276.0" font-family="Inter, Arial, sans-serif" font-size="11" font-weight="400" text-anchor="start" fill="#222222">15.2%</text>
<text x="231.0" y="305.0" font-family="Inter, Arial, sans-serif" font-size="12" font-weight="400" text-anchor="end" fill="#222222">VTB</text>
<rect x="245" y="290" width="700" height="1" fill="#F1F2F4"/>
<rect x="245" y="295" width="55.6" height="13" rx="2" fill="#EF3124"/>
<rect x="245" y="313" width="207.6" height="13" rx="2" fill="#3B82F6"/>
<text x="306.6" y="306.0" font-family="Inter, Arial, sans-serif" font-size="11" font-weight="400" text-anchor="start" fill="#222222">2.4%</text>
<text x="458.6" y="324.0" font-family="Inter, Arial, sans-serif" font-size="11" font-weight="400" text-anchor="start" fill="#222222">8.8%</text>
<text x="231.0" y="353.0" font-family="Inter, Arial, sans-serif" font-size="12" font-weight="400" text-anchor="end" fill="#222222">Jusan/Alatau</text>
<rect x="245" y="338" width="700" height="1" fill="#F1F2F4"/>
<rect x="245" y="343" width="40.6" height="13" rx="2" fill="#EF3124"/>
<rect x="245" y="361" width="151.1" height="13" rx="2" fill="#3B82F6"/>
<text x="291.6" y="354.0" font-family="Inter, Arial, sans-serif" font-size="11" font-weight="400" text-anchor="start" fill="#222222">1.7%</text>
<text x="402.1" y="372.0" font-family="Inter, Arial, sans-serif" font-size="11" font-weight="400" text-anchor="start" fill="#222222">6.4%</text>
<text x="231.0" y="401.0" font-family="Inter, Arial, sans-serif" font-size="12" font-weight="400" text-anchor="end" fill="#222222">Halyk</text>
<rect x="245" y="386" width="700" height="1" fill="#F1F2F4"/>
<rect x="245" y="391" width="40.5" height="13" rx="2" fill="#EF3124"/>
<rect x="245" y="409" width="195.2" height="13" rx="2" fill="#3B82F6"/>
<text x="291.5" y="402.0" font-family="Inter, Arial, sans-serif" font-size="11" font-weight="400" text-anchor="start" fill="#222222">1.7%</text>
<text x="446.2" y="420.0" font-family="Inter, Arial, sans-serif" font-size="11" font-weight="400" text-anchor="start" fill="#222222">8.3%</text>
<text x="231.0" y="449.0" font-family="Inter, Arial, sans-serif" font-size="12" font-weight="400" text-anchor="end" fill="#222222">T-Bank/Tinkoff</text>
<rect x="245" y="434" width="700" height="1" fill="#F1F2F4"/>
<rect x="245" y="439" width="33.1" height="13" rx="2" fill="#EF3124"/>
<rect x="245" y="457" width="193.5" height="13" rx="2" fill="#3B82F6"/>
<text x="284.1" y="450.0" font-family="Inter, Arial, sans-serif" font-size="11" font-weight="400" text-anchor="start" fill="#222222">1.4%</text>
<text x="444.5" y="468.0" font-family="Inter, Arial, sans-serif" font-size="11" font-weight="400" text-anchor="start" fill="#222222">8.2%</text>
<text x="231.0" y="497.0" font-family="Inter, Arial, sans-serif" font-size="12" font-weight="400" text-anchor="end" fill="#222222">Qiwi</text>
<rect x="245" y="482" width="700" height="1" fill="#F1F2F4"/>
<rect x="245" y="487" width="19.3" height="13" rx="2" fill="#EF3124"/>
<rect x="245" y="505" width="110.6" height="13" rx="2" fill="#3B82F6"/>
<text x="270.3" y="498.0" font-family="Inter, Arial, sans-serif" font-size="11" font-weight="400" text-anchor="start" fill="#222222">0.8%</text>
<text x="361.6" y="516.0" font-family="Inter, Arial, sans-serif" font-size="11" font-weight="400" text-anchor="start" fill="#222222">4.7%</text>
<text x="231.0" y="545.0" font-family="Inter, Arial, sans-serif" font-size="12" font-weight="400" text-anchor="end" fill="#222222">KoronaPay</text>
<rect x="245" y="530" width="700" height="1" fill="#F1F2F4"/>
<rect x="245" y="535" width="16.5" height="13" rx="2" fill="#EF3124"/>
<rect x="245" y="553" width="120.4" height="13" rx="2" fill="#3B82F6"/>
<text x="267.5" y="546.0" font-family="Inter, Arial, sans-serif" font-size="11" font-weight="400" text-anchor="start" fill="#222222">0.7%</text>
<text x="371.4" y="564.0" font-family="Inter, Arial, sans-serif" font-size="11" font-weight="400" text-anchor="start" fill="#222222">5.1%</text>
</svg>